<?xml version="1.0" encoding="utf-8"?>
<!-- Generator: Adobe Illustrator 16.0.0, SVG Export Plug-In . SVG Version: 6.00 Build 0)  -->
<!DOCTYPE svg PUBLIC "-//W3C//DTD SVG 1.1//EN" "http://www.w3.org/Graphics/SVG/1.1/DTD/svg11.dtd">
<svg version="1.1" xmlns="http://www.w3.org/2000/svg" xmlns:xlink="http://www.w3.org/1999/xlink" x="0px" y="0px" width="100%" height="100%" viewBox="0 0 200 200" enable-background="new 0 0 200 200" xml:space="preserve">
<g id="Layer_15" display="none">
	<rect display="inline" fill-rule="evenodd" clip-rule="evenodd" fill="#00AEEF" width="200" height="200"/>
</g>
<g id="wind" display="none">
	<path display="inline" fill-rule="evenodd" clip-rule="evenodd" fill="#FFFFFF" d="M152.016,106.666L152.016,106.666h-9.723
		c-3.583,0-6.481-2.897-6.481-6.479c0-3.579,2.898-6.482,6.481-6.482h9.723c3.578,0,6.482-2.901,6.482-6.479
		c0-3.583-2.904-6.481-6.482-6.481c-3.583,0-6.482-2.902-6.482-6.482c0-3.579,2.899-6.482,6.482-6.482
		c0.444,0,0.881,0.044,1.305,0.133c10.115,0.684,18.135,9.021,18.135,19.313C171.455,97.962,162.753,106.666,152.016,106.666z
		 M119.606,93.704h-6.481h-22.68H48.317c-3.58,0-6.479,2.903-6.479,6.482c0,3.582,2.899,6.479,6.479,6.479h6.481H67.76h9.721h12.964
		h9.723h12.957h6.481c10.742,0,19.446,8.705,19.446,19.446c0,10.293-8.021,18.63-18.137,19.314c-0.425,0.082-0.86,0.126-1.31,0.126
		c-3.576,0-6.481-2.899-6.481-6.475c0-3.584,2.905-6.483,6.481-6.483c3.583,0,6.481-2.905,6.481-6.482
		c0-3.582-2.898-6.481-6.481-6.481h-6.481h-12.957h-9.723H77.481H67.76H54.799h-6.481c-10.739,0-19.443-8.703-19.443-19.444
		c0-10.29,8.02-18.626,18.136-19.313c0.423-0.086,0.861-0.13,1.307-0.13l0,0h42.128h22.68h6.481c3.583,0,6.481-2.902,6.481-6.482
		c0-3.579-2.898-6.482-6.481-6.482c-3.576,0-6.481-2.898-6.481-6.482c0-3.576,2.905-6.482,6.481-6.482
		c0.449,0,0.885,0.048,1.31,0.134c10.116,0.683,18.137,9.019,18.137,19.312C139.053,84.998,130.349,93.704,119.606,93.704z"/>
</g>
<g id="temp" display="none">
	<path display="inline" fill-rule="evenodd" clip-rule="evenodd" fill="#FFFFFF" d="M100.168,158.518
		c-14.318,0-25.928-11.61-25.928-25.926c0-6.564,2.463-12.543,6.482-17.11V61.3c0-10.739,8.704-19.446,19.446-19.446
		c10.735,0,19.438,8.707,19.438,19.446v54.182c4.025,4.567,6.481,10.546,6.481,17.11
		C126.088,146.907,114.485,158.518,100.168,158.518z M106.648,121.426v-13.91V74.26V61.3c0-3.58-2.905-6.482-6.48-6.482
		c-3.582,0-6.482,2.903-6.482,6.482v12.96v33.255v13.91c-3.86,2.248-6.482,6.381-6.482,11.166c0,7.159,5.806,12.961,12.964,12.961
		c7.158,0,12.963-5.802,12.963-12.961C113.131,127.807,110.504,123.674,106.648,121.426z M100.168,142.313
		c-5.367,0-9.723-4.354-9.723-9.721c0-4.228,2.716-7.789,6.481-9.128V90.26h6.48v33.204c3.767,1.339,6.483,4.9,6.483,9.128
		C109.891,137.959,105.534,142.313,100.168,142.313z"/>
</g>
<g id="Layer_3" display="none">
	<path display="inline" fill-rule="evenodd" clip-rule="evenodd" fill="#FFFFFF" d="M171.458,106.663h-12.957
		c-3.583,0-6.482-2.897-6.482-6.478c0-3.579,2.899-6.482,6.482-6.482h12.957c3.584,0,6.482,2.903,6.482,6.482
		C177.94,103.766,175.042,106.663,171.458,106.663z M146,63.521c-2.532,2.532-6.641,2.532-9.167,0c-2.531-2.532-2.531-6.634,0-9.166
		L146,45.189c2.525-2.532,6.633-2.532,9.166,0c2.525,2.532,2.525,6.634,0,9.166L146,63.521z M100.169,139.071
		c-21.478,0-38.89-17.411-38.89-38.886c0-21.478,17.413-38.889,38.89-38.889c21.479,0,38.887,17.411,38.887,38.889
		C139.057,121.66,121.648,139.071,100.169,139.071z M100.169,74.26c-14.318,0-25.928,11.606-25.928,25.925
		c0,14.315,11.61,25.925,25.928,25.925c14.319,0,25.922-11.61,25.922-25.925C126.092,85.866,114.488,74.26,100.169,74.26z
		 M100.169,48.336c-3.582,0-6.482-2.903-6.482-6.482v-12.96c0-3.579,2.9-6.482,6.482-6.482c3.578,0,6.482,2.903,6.482,6.482v12.96
		C106.651,45.433,103.747,48.336,100.169,48.336z M54.338,63.521l-9.166-9.166c-2.531-2.532-2.531-6.634,0-9.166
		c2.532-2.532,6.634-2.532,9.166,0l9.167,9.166c2.532,2.532,2.532,6.634,0,9.166C60.972,66.054,56.87,66.054,54.338,63.521z
		 M48.319,100.185c0,3.581-2.902,6.478-6.482,6.478H28.873c-3.577,0-6.479-2.897-6.479-6.478c0-3.579,2.903-6.482,6.479-6.482
		h12.963C45.417,93.703,48.319,96.606,48.319,100.185z M54.338,136.846c2.532-2.529,6.634-2.529,9.167,0
		c2.532,2.532,2.532,6.637,0,9.166l-9.167,9.165c-2.532,2.533-6.634,2.533-9.166,0c-2.531-2.528-2.531-6.633,0-9.165L54.338,136.846
		z M100.169,152.035c3.578,0,6.482,2.899,6.482,6.479v12.963c0,3.58-2.904,6.482-6.482,6.482c-3.582,0-6.482-2.902-6.482-6.482
		v-12.963C93.688,154.935,96.587,152.035,100.169,152.035z M146,136.846l9.166,9.166c2.525,2.532,2.525,6.637,0,9.165
		c-2.533,2.533-6.641,2.533-9.166,0l-9.167-9.165c-2.531-2.529-2.531-6.634,0-9.166C139.359,134.316,143.468,134.316,146,136.846z"
		/>
</g>
<g id="Layer_4" display="none">
	<path display="inline" fill-rule="evenodd" clip-rule="evenodd" fill="#FFFFFF" d="M100.168,139.071
		c-21.478,0-38.889-17.408-38.889-38.885c0-21.478,17.411-38.889,38.889-38.889c2.446,0,4.835,0.253,7.152,0.687
		c-0.424,1.868-0.672,3.801-0.672,5.795c0,14.319,11.609,25.924,25.928,25.924c1.995,0,3.925-0.246,5.792-0.674
		c0.431,2.324,0.685,4.707,0.685,7.156C139.053,121.663,121.645,139.071,100.168,139.071z M94.373,74.933
		c-11.524,2.637-20.129,12.93-20.129,25.254c0,14.317,11.606,25.926,25.924,25.926c12.324,0,22.617-8.607,25.249-20.129
		C109.687,103.052,97.301,90.666,94.373,74.933z"/>
</g>
<g id="Layer_5" display="none">
	<path display="inline" fill-rule="evenodd" clip-rule="evenodd" fill="#FFFFFF" d="M181.183,106.663h-12.964
		c-3.58,0-6.482-2.897-6.482-6.481c0-3.576,2.902-6.479,6.482-6.479h12.964c3.576,0,6.481,2.903,6.481,6.479
		C187.664,103.766,184.759,106.663,181.183,106.663z M155.716,63.519c-2.532,2.532-6.634,2.532-9.165,0
		c-2.533-2.529-2.533-6.634,0-9.163l9.165-9.166c2.532-2.532,6.634-2.532,9.167,0c2.531,2.529,2.531,6.634,0,9.166L155.716,63.519z
		 M146.163,114.102L146.163,114.102c5.67,6.758,9.094,15.458,9.094,24.97c0,21.475-17.411,38.889-38.889,38.889
		c-8.995,0-41.487,0-51.85,0c-28.633,0-51.849-23.213-51.849-51.85c0-28.638,23.216-51.85,51.849-51.85
		c5.096,0,10.015,0.754,14.661,2.121c7.115-9.163,18.209-15.084,30.708-15.084c21.478,0,38.89,17.411,38.89,38.886
		C148.776,105.094,147.826,109.775,146.163,114.102z M25.633,126.11c0,21.477,17.408,38.885,38.885,38.885
		c11.721,0,42.063,0,51.85,0c14.318,0,25.925-11.607,25.925-25.924c0-14.319-11.606-25.925-25.925-25.925
		c-5.185,0-9.991,1.561-14.043,4.184c-3.991-17.23-19.36-30.109-37.807-30.109C43.042,87.221,25.633,104.632,25.633,126.11z
		 M109.887,74.26c-7.169,0-13.661,2.912-18.352,7.615c7.584,4.653,13.889,11.188,18.244,18.972c2.152-0.367,4.333-0.665,6.589-0.665
		c6.889,0,13.35,1.81,18.959,4.95l0,0c0.31-1.602,0.487-3.253,0.487-4.95C135.814,85.866,124.205,74.26,109.887,74.26z
		 M109.887,48.332c-3.576,0-6.479-2.899-6.479-6.479v-12.96c0-3.583,2.903-6.482,6.479-6.482c3.583,0,6.481,2.9,6.481,6.482v12.96
		C116.368,45.433,113.47,48.332,109.887,48.332z M64.057,63.519l-9.163-9.163c-2.531-2.532-2.531-6.637,0-9.166
		c2.529-2.532,6.634-2.532,9.163,0l9.166,9.166c2.532,2.529,2.532,6.634,0,9.163C70.694,66.051,66.589,66.051,64.057,63.519z"/>
</g>
<g id="Layer_6" display="none">
	<path display="inline" fill-rule="evenodd" clip-rule="evenodd" fill="#FFFFFF" d="M162.777,102.183L162.777,102.183
		c4.436,6.32,7.062,13.999,7.062,22.307c0,21.475-17.408,38.889-38.886,38.889c-8.995,0-41.487,0-51.849,0
		c-28.638,0-51.85-23.216-51.85-51.849c0-28.638,23.212-51.85,51.85-51.85c6.488,0,12.685,1.215,18.407,3.392l0,0
		c5.298-15.172,19.7-26.079,36.682-26.079c2.446,0,4.833,0.253,7.153,0.687c-0.425,1.864-0.671,3.801-0.671,5.795
		c0,14.318,11.607,25.925,25.923,25.925c1.995,0,3.931-0.247,5.797-0.675c0.43,2.323,0.684,4.709,0.684,7.156
		C173.079,86.037,169.155,95.257,162.777,102.183z M40.218,111.529c0,21.475,17.408,38.886,38.886,38.886
		c11.719,0,42.063,0,51.849,0c14.319,0,25.925-11.61,25.925-25.926c0-14.319-11.605-25.925-25.925-25.925
		c-5.184,0-9.993,1.561-14.047,4.185c-3.99-17.231-19.357-30.109-37.802-30.109C57.625,72.64,40.218,90.05,40.218,111.529z
		 M103.575,65.845c0.003,0,0.007,0,0.007,0S103.578,65.845,103.575,65.845z M128.399,50.627c-9.4,2.152-16.771,9.431-19.203,18.718
		l0,0c6.217,4.446,11.42,10.216,15.168,16.92c2.15-0.368,4.332-0.665,6.589-0.665c8.484,0,16.313,2.75,22.702,7.362l0,0
		c2.781-3.176,4.814-7.027,5.789-11.287C143.715,78.745,131.327,66.364,128.399,50.627z"/>
</g>
<g id="Layer_7" display="none">
	<path display="inline" fill-rule="evenodd" clip-rule="evenodd" fill="#FFFFFF" d="M80.722,152.035
		c-28.634,0-51.849-23.216-51.849-51.85c0-28.637,23.215-51.849,51.849-51.849c19.458,0,36.39,10.731,45.258,26.585
		c2.152-0.367,4.337-0.665,6.59-0.665c21.478,0,38.892,17.415,38.892,38.89c0,21.475-17.414,38.889-38.892,38.889
		C123.576,152.035,91.085,152.035,80.722,152.035z M132.57,139.071c14.318,0,25.928-11.609,25.928-25.925
		c0-14.319-11.609-25.926-25.928-25.926c-5.184,0-9.989,1.561-14.039,4.185c-3.995-17.23-19.363-30.109-37.809-30.109
		c-21.474,0-38.886,17.411-38.886,38.889c0,21.475,17.412,38.886,38.886,38.886C92.443,139.071,122.785,139.071,132.57,139.071z"/>
</g>
<g id="Layer_8" display="none">
	<path display="inline" fill-rule="evenodd" clip-rule="evenodd" fill="#B5B5B6" d="M80.722,152.035
		c-28.634,0-51.849-23.216-51.849-51.85c0-28.637,23.215-51.849,51.849-51.849c19.458,0,36.39,10.731,45.258,26.585
		c2.152-0.367,4.337-0.665,6.59-0.665c21.478,0,38.892,17.415,38.892,38.89c0,21.475-17.414,38.889-38.892,38.889
		C123.576,152.035,91.085,152.035,80.722,152.035z M132.57,139.071c14.318,0,25.928-11.609,25.928-25.925
		c0-14.319-11.609-25.926-25.928-25.926c-5.184,0-9.989,1.561-14.039,4.185c-3.995-17.23-19.363-30.109-37.809-30.109
		c-21.474,0-38.886,17.411-38.886,38.889c0,21.475,17.412,38.886,38.886,38.886C92.443,139.071,122.785,139.071,132.57,139.071z"/>
</g>
<g id="Layer_9" display="none">
	<path display="inline" fill-rule="evenodd" clip-rule="evenodd" fill="#FFFFFF" d="M145.533,130.329v-14.198
		c7.742-4.485,12.965-12.837,12.965-22.428c0-14.317-11.609-25.924-25.928-25.924c-5.184,0-9.989,1.558-14.039,4.185
		c-3.995-17.234-19.365-30.109-37.811-30.109c-21.475,0-38.886,17.411-38.886,38.885c0,11.506,5.026,21.808,12.964,28.925v15.934
		c-15.483-8.97-25.928-25.676-25.928-44.859c0-28.634,23.215-51.846,51.85-51.846c19.458,0,36.392,10.729,45.26,26.585
		c2.152-0.367,4.337-0.664,6.59-0.664c21.478,0,38.892,17.411,38.892,38.888C171.462,110.627,160.633,124.983,145.533,130.329z
		 M74.242,93.703c3.581,0,6.479,2.903,6.479,6.479v51.85c0,3.583-2.898,6.482-6.479,6.482c-3.579,0-6.482-2.899-6.482-6.482v-51.85
		C67.76,96.606,70.663,93.703,74.242,93.703z M100.167,106.663c3.583,0,6.482,2.903,6.482,6.483v51.849
		c0,3.58-2.898,6.482-6.482,6.482c-3.579,0-6.482-2.902-6.482-6.482v-51.849C93.684,109.566,96.587,106.663,100.167,106.663z
		 M126.095,93.703c3.576,0,6.476,2.903,6.476,6.479v51.85c0,3.583-2.899,6.482-6.476,6.482c-3.583,0-6.481-2.899-6.481-6.482v-51.85
		C119.613,96.606,122.512,93.703,126.095,93.703z"/>
</g>
<g id="Layer_10" display="none">
	<path display="inline" fill-rule="evenodd" clip-rule="evenodd" fill="#FFFFFF" d="M181.183,87.221h-12.964
		c-3.577,0-6.482-2.898-6.482-6.482c0-3.576,2.905-6.482,6.482-6.482h12.964c3.579,0,6.481,2.906,6.481,6.482
		C187.664,84.322,184.762,87.221,181.183,87.221z M155.716,44.076c-2.532,2.532-6.634,2.532-9.165,0
		c-2.533-2.529-2.533-6.634,0-9.167l9.165-9.166c2.532-2.528,6.634-2.528,9.167,0c2.531,2.532,2.531,6.637,0,9.166L155.716,44.076z
		 M146.163,94.659L146.163,94.659c5.673,6.755,9.094,15.458,9.094,24.97c0,16.923-10.834,31.28-25.924,36.625v-14.198
		c7.741-4.485,12.963-12.838,12.963-22.427c0-14.319-11.609-25.926-25.928-25.926c-5.185,0-9.991,1.558-14.043,4.185
		c-3.991-17.234-19.36-30.109-37.807-30.109c-21.474,0-38.885,17.411-38.885,38.885c0,11.507,5.026,21.809,12.964,28.926v15.934
		c-15.484-8.971-25.928-25.675-25.928-44.859c0-28.633,23.216-51.846,51.849-51.846c5.096,0,10.015,0.751,14.664,2.121
		c7.112-9.163,18.206-15.084,30.704-15.084c21.478,0,38.89,17.408,38.89,38.885C148.776,85.651,147.829,90.333,146.163,94.659z
		 M109.887,54.817c-7.165,0-13.657,2.912-18.352,7.615c7.587,4.65,13.893,11.188,18.244,18.971c2.152-0.367,4.336-0.665,6.589-0.665
		c6.892,0,13.35,1.811,18.959,4.951l0,0c0.31-1.602,0.487-3.254,0.487-4.951C135.814,66.421,124.205,54.817,109.887,54.817z
		 M109.887,28.89c-3.576,0-6.479-2.9-6.479-6.482V9.447c0-3.581,2.903-6.479,6.479-6.479c3.583,0,6.481,2.898,6.481,6.479v12.96
		C116.368,25.99,113.47,28.89,109.887,28.89z M64.06,44.076l-9.167-9.167c-2.528-2.529-2.528-6.634,0-9.166
		c2.529-2.528,6.637-2.528,9.167,0l9.166,9.166c2.529,2.533,2.529,6.638,0,9.167C70.694,46.608,66.589,46.608,64.06,44.076z
		 M58.037,119.629c3.583,0,6.481,2.901,6.481,6.478v51.851c0,3.581-2.898,6.48-6.481,6.48c-3.576,0-6.479-2.899-6.479-6.48v-51.851
		C51.558,122.53,54.461,119.629,58.037,119.629z M83.965,132.59c3.577,0,6.482,2.901,6.482,6.481v51.85
		c0,3.579-2.905,6.481-6.482,6.481c-3.579,0-6.482-2.902-6.482-6.481v-51.85C77.482,135.491,80.386,132.59,83.965,132.59z
		 M109.887,119.629c3.583,0,6.481,2.901,6.481,6.478v51.851c0,3.581-2.898,6.48-6.481,6.48c-3.576,0-6.479-2.899-6.479-6.48v-51.851
		C103.407,122.53,106.311,119.629,109.887,119.629z"/>
</g>
<g id="Layer_11">
	<g>
		<g>
			<path fill-rule="evenodd" clip-rule="evenodd" fill="#FFFFFF" d="M72.622,105.046c-3.577,0-6.479,2.902-6.479,6.48v51.849
				c0,3.583,2.902,6.483,6.479,6.483c3.582,0,6.482-2.9,6.482-6.483v-51.849C79.104,107.948,76.204,105.046,72.622,105.046z
				 M98.55,118.007c-3.583,0-6.482,2.903-6.482,6.482v51.851c0,3.579,2.9,6.48,6.482,6.48c3.575,0,6.481-2.901,6.481-6.48v-51.851
				C105.031,120.91,102.125,118.007,98.55,118.007z M124.471,105.046c-3.576,0-6.479,2.902-6.479,6.48v51.849
				c0,3.583,2.902,6.483,6.479,6.483c3.583,0,6.482-2.9,6.482-6.483v-51.849C130.953,107.948,128.054,105.046,124.471,105.046z
				 M173.079,56.435c0-2.444-0.254-4.83-0.684-7.153c-1.866,0.427-3.802,0.674-5.794,0.674c-14.318,0-25.926-11.606-25.926-25.926
				c0-1.994,0.246-3.93,0.671-5.794c-2.32-0.434-4.703-0.688-7.153-0.688c-16.982,0-31.384,10.907-36.682,26.081
				c-5.723-2.178-11.919-3.394-18.407-3.394c-28.635,0-51.85,23.212-51.85,51.847c0,19.183,10.444,35.889,25.928,44.859v-15.934
				c-7.941-7.117-12.964-17.421-12.964-28.925c0-21.475,17.408-38.885,38.886-38.885c18.445,0,33.815,12.875,37.806,30.108
				c4.05-2.627,8.859-4.184,14.043-4.184c14.319,0,25.925,11.606,25.925,25.924c0,9.592-5.22,17.942-12.962,22.428v14.198
				c15.091-5.346,25.926-19.702,25.926-36.626c0-8.308-2.626-15.989-7.064-22.307C169.155,75.812,173.079,66.595,173.079,56.435z
				 M153.658,73.52c-6.392-4.615-14.221-7.362-22.705-7.362c-2.257,0-4.438,0.298-6.589,0.665
				c-3.748-6.704-8.951-12.473-15.164-16.92c2.431-9.287,9.802-16.566,19.199-18.719c2.931,15.737,15.315,28.118,31.045,31.049
				C158.47,66.493,156.437,70.342,153.658,73.52z"/>
		</g>
	</g>
</g>
<g id="Layer_12" display="none">
	<path display="inline" fill-rule="evenodd" clip-rule="evenodd" fill="#FFFFFF" d="M132.57,132.592c-0.905,0-2.101,0-3.443,0
		l11.623-14.296c10.304-3.429,17.748-13.135,17.748-24.593c0-14.317-11.609-25.921-25.928-25.921c-5.184,0-9.989,1.558-14.039,4.182
		c-3.995-17.23-19.365-30.109-37.811-30.109c-21.475,0-38.886,17.411-38.886,38.889c0,17.651,11.771,32.533,27.884,37.284
		l-4.371,12.245c-21.129-6.551-36.477-26.247-36.477-49.529c0-28.634,23.215-51.85,51.85-51.85c19.458,0,36.392,10.732,45.26,26.589
		c2.152-0.371,4.337-0.665,6.59-0.665c21.478,0,38.892,17.408,38.892,38.885C171.462,115.182,154.048,132.592,132.57,132.592z
		 M93.684,87.221h32.404l-19.439,32.41h22.682l-42.128,51.847l11.667-38.886H77.479L93.684,87.221z"/>
</g>
<g id="Layer_13" display="none">
	<path display="inline" fill-rule="evenodd" clip-rule="evenodd" fill="#FFFFFF" d="M139.053,141.733v-13.229
		c11.176-2.885,19.445-13,19.445-25.078c0-14.314-11.609-25.922-25.925-25.922c-5.187,0-9.995,1.558-14.045,4.185
		c-3.992-17.233-19.358-30.113-37.804-30.113c-21.478,0-38.889,17.415-38.889,38.889c0,14.386,7.834,26.916,19.442,33.641v14.404
		c-18.993-7.694-32.403-26.292-32.403-48.045c0-28.634,23.212-51.849,51.85-51.849c19.459,0,36.391,10.731,45.26,26.589
		c2.151-0.367,4.329-0.665,6.589-0.665c21.475,0,38.885,17.411,38.885,38.885C171.458,122.692,157.438,138.641,139.053,141.733z
		 M77.714,122.872c1.791-3.101,5.754-4.162,8.855-2.373l7.114,4.107v-8.217c0-3.579,2.903-6.481,6.482-6.481
		c3.581,0,6.482,2.902,6.482,6.481v8.217l7.114-4.107c3.103-1.789,7.064-0.728,8.854,2.373c1.792,3.099,0.729,7.064-2.37,8.852
		l-7.118,4.111l7.118,4.109c3.099,1.789,4.162,5.751,2.37,8.854c-1.789,3.095-5.751,4.158-8.854,2.365l-7.114-4.108v8.218
		c0,3.584-2.901,6.481-6.482,6.481c-3.579,0-6.482-2.897-6.482-6.481v-8.218l-7.114,4.108c-3.102,1.793-7.064,0.729-8.855-2.365
		c-1.789-3.103-0.728-7.064,2.374-8.854l7.114-4.109l-7.114-4.111C76.986,129.937,75.926,125.971,77.714,122.872z M100.167,142.315
		c3.581,0,6.482-2.903,6.482-6.48c0-3.582-2.901-6.481-6.482-6.481c-3.579,0-6.482,2.899-6.482,6.481
		C93.684,139.412,96.587,142.315,100.167,142.315z"/>
</g>
<g id="Layer_14" display="none">
	<path display="inline" fill-rule="evenodd" clip-rule="evenodd" fill="#FFFFFF" d="M164.979,139.075H35.354
		c-3.58,0-6.482-2.902-6.482-6.48c0-3.583,2.903-6.482,6.482-6.482h129.626c3.578,0,6.482,2.899,6.482,6.482
		C171.462,136.173,168.558,139.075,164.979,139.075z M164.979,113.149H35.354c-3.58,0-6.482-2.902-6.482-6.483
		c0-3.575,2.903-6.481,6.482-6.481h129.626c3.578,0,6.482,2.906,6.482,6.481C171.462,110.247,168.558,113.149,164.979,113.149z
		 M132.57,74.264c-5.184,0-9.989,1.558-14.039,4.184c-3.995-17.233-19.365-30.112-37.811-30.112
		c-21.475,0-38.886,17.414-38.886,38.888H28.871c0-28.633,23.215-51.849,51.85-51.849c19.458,0,36.392,10.732,45.26,26.589
		c2.152-0.367,4.337-0.664,6.59-0.664c16.926,0,31.282,10.831,36.624,25.924h-14.197C150.516,79.483,142.16,74.264,132.57,74.264z
		 M35.354,152.032h129.626c3.578,0,6.482,2.905,6.482,6.482c0,3.581-2.904,6.48-6.482,6.48H35.354c-3.58,0-6.482-2.899-6.482-6.48
		C28.871,154.938,31.774,152.032,35.354,152.032z"/>
</g>
</svg>
