<?xml version="1.0" encoding="utf-8"?>
<!-- Generator: Adobe Illustrator 16.0.0, SVG Export Plug-In . SVG Version: 6.00 Build 0)  -->
<!DOCTYPE svg PUBLIC "-//W3C//DTD SVG 1.1//EN" "http://www.w3.org/Graphics/SVG/1.1/DTD/svg11.dtd">
<svg version="1.1" xmlns="http://www.w3.org/2000/svg" xmlns:xlink="http://www.w3.org/1999/xlink" x="0px" y="0px" width="300px"
	 height="150px" viewBox="0 0 300 150" enable-background="new 0 0 300 150" xml:space="preserve">
<g id="Layer_9" display="none">
	<rect y="0" display="inline" fill="#6D6D6D" width="300" height="150"/>
</g>
<g id="Layer_1" display="none">
	<path display="inline" fill="#BFBFBF" d="M296.728,134.943C240.667,124.667,255,85.333,228.333,84
		c-20.667,0-9.519,30.665-41.666,30.334C147.147,113.998,156.333,19,129.333,19c-30,0-10.333,99.334-51.023,100.42
		C59,119.334,67.227,95.334,49.333,95.334c-18.687,0-11.553,39.61-46.061,39.609H296.728"/>
</g>
<g id="Layer_1_copy_2" display="none">
	<path display="inline" fill="#BFBFBF" d="M296.728,134.943c-58.061-9.609-37.061-119.886-68.892-119.886
		c-31.503,0-21.142,100.199-56.93,99.751c-26.573-0.142-33.547-26.866-52.338-26.866c-21.92,0.448-18.499,31.478-40.258,31.478
		C58,119.334,64.233,107.99,46.349,108.563C32.667,109,37.78,134.944,3.272,134.943H296.728"/>
</g>
<g id="Layer_1_copy" display="none">
	<path display="inline" fill="#BFBFBF" d="M296.728,134.943C191,127,170.098,86.334,140,86.334
		C118.08,86.782,111.425,119,89.667,119c-22.367,0-16.439-13.333-34.333-13.333c-18.687,0-17.553,29.277-52.061,29.276H296.728"/>
	<path display="inline" fill="#BFBFBF" d="M296.728,134.943"/>
</g>
<g id="Layer_1_copy_3" display="none">
	<path display="inline" fill="#BFBFBF" d="M296.728,134.943C191,127,207.765,59,177.667,59c-33.304,0.681-23.52,59.117-64,58.334
		C91.299,117.334,95.894,99,78,99c-18.687,0-40.22,35.944-74.728,35.943H296.728"/>
	<path display="inline" fill="#BFBFBF" d="M296.728,134.943"/>
</g>
<g id="white_1" display="none">
	<linearGradient id="SVGID_1_" gradientUnits="userSpaceOnUse" x1="149.9995" y1="61.9712" x2="149.9995" y2="182.0014">
		<stop  offset="0.4918" style="stop-color:#FFFFFF"/>
		<stop  offset="1" style="stop-color:#000000"/>
	</linearGradient>
	<path display="inline" fill="url(#SVGID_1_)" d="M296.728,134.943C240.667,124.667,255,85.333,228.333,84
		c-20.667,0-9.519,30.665-41.666,30.334C147.147,113.998,156.333,19,129.333,19c-30,0-10.333,99.334-51.023,100.42
		C59,119.334,67.227,95.334,49.333,95.334c-18.687,0-11.553,39.61-46.061,39.609H296.728"/>
</g>
<g id="white_2" display="none">
	<linearGradient id="SVGID_2_" gradientUnits="userSpaceOnUse" x1="149.9995" y1="63.667" x2="149.9995" y2="169.0015">
		<stop  offset="0.5538" style="stop-color:#FFFFFF"/>
		<stop  offset="1" style="stop-color:#000000"/>
	</linearGradient>
	<path display="inline" fill="url(#SVGID_2_)" d="M296.728,134.943c-58.061-9.609-37.061-119.886-68.892-119.886
		c-31.503,0-21.142,100.199-56.93,99.751c-26.573-0.142-33.547-26.866-52.338-26.866c-21.92,0.448-18.499,31.478-40.258,31.478
		C58,119.334,64.233,107.99,46.349,108.563C32.667,109,37.78,134.944,3.272,134.943H296.728"/>
</g>
<g id="white_3">
	<linearGradient id="SVGID_3_" gradientUnits="userSpaceOnUse" x1="149.9995" y1="58.3057" x2="149.9995" y2="180.334">
		<stop  offset="0.491" style="stop-color:#FFFFFF"/>
		<stop  offset="1" style="stop-color:#000000"/>
	</linearGradient>
	<path fill="url(#SVGID_3_)" d="M296.728,134.943C191,127,170.098,86.334,140,86.334C118.08,86.782,111.425,119,89.667,119
		c-22.367,0-16.439-13.333-34.333-13.333c-18.687,0-17.553,29.277-52.061,29.276H296.728"/>
	<path fill="#FFFFFF" d="M296.728,134.943"/>
</g>
<g id="white_4" display="none">
	<linearGradient id="SVGID_4_" gradientUnits="userSpaceOnUse" x1="149.4429" y1="33.5571" x2="150.1926" y2="169.9589">
		<stop  offset="0.6434" style="stop-color:#FFFFFF"/>
		<stop  offset="1" style="stop-color:#000000"/>
	</linearGradient>
	<path display="inline" fill="url(#SVGID_4_)" d="M296.728,134.943C191,127,207.765,59,177.667,59
		c-33.304,0.681-23.52,59.117-64,58.334C91.299,117.334,95.894,99,78,99c-18.687,0-40.22,35.944-74.728,35.943H296.728"/>
	<path display="inline" fill="#FFFFFF" d="M296.728,134.943"/>
</g>
</svg>
